<?xml version="1.0" standalone="no"?>
<!DOCTYPE svg PUBLIC "-//W3C//DTD SVG 20010904//EN"
 "http://www.w3.org/TR/2001/REC-SVG-20010904/DTD/svg10.dtd">
<svg version="1.0" xmlns="http://www.w3.org/2000/svg"
 width="16.000000pt" height="16.000000pt" viewBox="0 0 16.000000 16.000000"
 preserveAspectRatio="xMidYMid meet">

<g transform="translate(0.000000,16.000000) scale(0.100000,-0.100000)"
fill="#000000" stroke="none">
<path d="M4 147 c-3 -8 -4 -43 -2 -78 l3 -64 75 0 75 0 0 75 0 75 -73 3 c-55
2 -74 -1 -78 -11z m86 -27 c0 -5 7 -10 16 -10 11 0 14 -6 9 -20 -4 -12 -2 -20
5 -20 6 0 8 -5 4 -11 -5 -8 -10 -6 -16 5 -5 9 -7 20 -4 25 3 5 -1 11 -9 15
-19 7 -47 -3 -39 -15 3 -5 1 -16 -4 -25 -6 -11 -11 -13 -16 -5 -4 6 -2 11 4
11 7 0 9 8 5 20 -5 14 -2 20 9 20 9 0 16 5 16 10 0 6 5 10 10 10 6 0 10 -4 10
-10z m-67 -35 c-3 -9 -8 -14 -10 -11 -3 3 -2 9 2 15 9 16 15 13 8 -4z m125
-10 c-3 -3 -9 2 -12 12 -6 14 -5 15 5 6 7 -7 10 -15 7 -18z m-58 5 c0 -5 -4
-10 -10 -10 -5 0 -10 5 -10 10 0 6 5 10 10 10 6 0 10 -4 10 -10z m4 -35 c-8
-19 -20 -19 -28 0 -4 10 1 15 14 15 13 0 18 -5 14 -15z"/>
</g>
</svg>
